<svg xmlns="http://www.w3.org/2000/svg" version="1.1" xmlns:xlink="http://www.w3.org/1999/xlink" xmlns:svgjs="http://svgjs.dev/svgjs" width="2000" height="404" viewBox="0 0 2000 404"><g transform="matrix(1,0,0,1,-1.2121212121212466,-0.8424573731797409)"><svg viewBox="0 0 396 80" data-background-color="#ffffff" preserveAspectRatio="xMidYMid meet" height="404" width="2000" xmlns="http://www.w3.org/2000/svg" xmlns:xlink="http://www.w3.org/1999/xlink"><g id="tight-bounds" transform="matrix(1,0,0,1,0.2400000000000091,0.16682324221380895)"><svg viewBox="0 0 395.52 79.66635351557237" height="79.66635351557237" width="395.52"><g><svg viewBox="0 0 485.1212266763891 97.71399459524001" height="79.66635351557237" width="395.52"><g transform="matrix(1,0,0,1,89.60122667638909,17.226565671964497)"><svg viewBox="0 0 395.52 63.260863251311015" height="63.260863251311015" width="395.52"><g id="textblocktransform"><svg viewBox="0 0 395.52 63.260863251311015" height="63.260863251311015" width="395.52" id="textblock"><g><svg viewBox="0 0 395.52 63.260863251311015" height="63.260863251311015" width="395.52"><g transform="matrix(1,0,0,1,0,0)"><svg width="395.52" viewBox="1.5 -38.55 247.88 39.65" height="63.260863251311015" data-palette-color="#000000"><path d="M21.05 0.5Q15.7 0.5 11.2-2.02 6.7-4.55 4.1-9.03 1.5-13.5 1.5-19L1.5-19Q1.5-24.8 4.1-29.25 6.7-33.7 11.1-36.13 15.5-38.55 20.75-38.55L20.75-38.55Q25.8-38.55 29.28-36.77 32.75-35 35.85-31.8L35.85-31.8Q35.95-31.7 36.15-31.7L36.15-31.7Q36.45-31.7 37.2-32.15L37.2-32.15 37.8-31.4 30.9-25.95 30.3-26.7Q30.6-26.9 30.78-27.23 30.95-27.55 30.75-27.7L30.75-27.7Q28.65-29.75 26.38-30.83 24.1-31.9 20.85-31.9L20.85-31.9Q17.45-31.9 14.6-30.23 11.75-28.55 10.1-25.6 8.45-22.65 8.45-19L8.45-19Q8.45-15.5 10.2-12.63 11.95-9.75 14.85-8.1 17.75-6.45 21.05-6.45L21.05-6.45Q24.15-6.45 26.35-7.53 28.55-8.6 30.5-10.75L30.5-10.75 30.6-10.95Q30.6-11.2 30.38-11.53 30.15-11.85 29.9-12L29.9-12 30.55-12.7 38-6.45 37.4-5.7Q37.1-5.95 36.65-6.15 36.2-6.35 36.05-6.15L36.05-6.15Q32.9-2.75 29.45-1.13 26 0.5 21.05 0.5L21.05 0.5ZM52.5 0.6Q48.8 0.6 45.97-0.98 43.15-2.55 41.57-5.3 40-8.05 40-11.5L40-11.5Q40-14.9 41.57-17.7 43.15-20.5 46-22.13 48.85-23.75 52.5-23.75L52.5-23.75Q56-23.75 58.85-22.18 61.7-20.6 63.35-17.82 65-15.05 65-11.5L65-11.5Q65-8.4 63.52-5.63 62.05-2.85 59.2-1.13 56.35 0.6 52.5 0.6L52.5 0.6ZM52.5-5.15Q55.45-5.15 57.27-6.88 59.1-8.6 59.1-11.35L59.1-11.35Q59.1-14.2 57.27-16.05 55.45-17.9 52.5-17.9L52.5-17.9Q49.75-17.9 47.9-16.07 46.05-14.25 46.05-11.5L46.05-11.5Q46.05-8.6 47.9-6.88 49.75-5.15 52.5-5.15L52.5-5.15ZM93.84-13.45L93.84-1.5Q93.84-1.25 94.22-1.1 94.59-0.95 95-0.95L95-0.95 95 0 86.2 0 86.2-0.95Q86.59-0.95 86.97-1.1 87.34-1.25 87.34-1.5L87.34-1.5 87.34-11.9Q87.34-14.45 86.09-16.28 84.84-18.1 82.34-18.1L82.34-18.1Q79.8-18.1 78.22-16.4 76.65-14.7 76.65-11.5L76.65-11.5 76.65-1.5Q76.65-1.25 77.02-1.1 77.4-0.95 77.8-0.95L77.8-0.95 77.8 0 69.05 0 69.05-0.95Q69.45-0.95 69.82-1.1 70.2-1.25 70.2-1.5L70.2-1.5 70.2-21.5Q70.2-21.75 69.82-21.9 69.45-22.05 69.09-22.05L69.09-22.05 69.09-23 76.65-23 76.65-20.95Q77.95-22.15 79.72-22.83 81.5-23.5 83.34-23.5L83.34-23.5Q86.55-23.5 88.92-22.15 91.3-20.8 92.57-18.53 93.84-16.25 93.84-13.45L93.84-13.45ZM125.99-23L125.99-22.05Q124.99-22.05 124.74-21.65L124.74-21.65 115.69-2.25Q115.54-1.9 115.54-1.65L115.54-1.65Q115.54-1.25 115.87-1.1 116.19-0.95 116.54-0.95L116.54-0.95 116.54 0 106.44 0 106.44-0.95Q106.79-0.95 107.14-1.13 107.49-1.3 107.49-1.75L107.49-1.75Q107.49-2 107.34-2.3L107.34-2.3 98.99-21.6Q98.84-22.05 97.79-22.05L97.79-22.05 97.79-23 106.49-23 106.49-22.05Q105.89-22.05 105.72-21.78 105.54-21.5 105.69-21.15L105.69-21.15 111.84-6.8 118.34-21.2Q118.39-21.25 118.39-21.35L118.39-21.35Q118.39-21.6 118.02-21.83 117.64-22.05 117.09-22.05L117.09-22.05 117.09-23 125.99-23ZM140.44-24.05Q144.29-24.05 147.09-22.38 149.89-20.7 151.34-17.85 152.79-15 152.79-11.55L152.79-11.55Q152.79-10.5 152.64-9.45L152.64-9.45 134.34-9.45Q134.54-7.05 136.44-5.7 138.34-4.35 140.99-4.35L140.99-4.35Q142.79-4.35 144.02-4.85 145.24-5.35 146.19-6.35L146.19-6.35Q146.29-6.55 146.29-6.6L146.29-6.6Q146.29-6.8 146.14-7.03 145.99-7.25 145.84-7.35L145.84-7.35 146.44-8.1 151.99-3.75 151.44-3Q150.69-3.45 150.39-3.1L150.39-3.1Q146.89 1.1 140.99 1.1L140.99 1.1Q137.19 1.1 134.29-0.58 131.39-2.25 129.81-5.08 128.24-7.9 128.24-11.35L128.24-11.35Q128.24-15 129.79-17.9 131.34-20.8 134.12-22.43 136.89-24.05 140.44-24.05L140.44-24.05ZM134.39-14.1L146.79-14.1Q146.59-16.15 144.72-17.57 142.84-19 140.49-19L140.49-19Q138.14-19 136.44-17.57 134.74-16.15 134.39-14.1L134.39-14.1ZM171.04-24.5L171.99-24.5 171.99-16.45 171.04-16.45Q171.04-16.8 170.89-17.25 170.74-17.7 170.49-17.75L170.49-17.75 170.14-17.75Q168.59-17.75 167.01-16.88 165.44-16 164.41-14.58 163.39-13.15 163.39-11.55L163.39-11.55 163.39-1.5Q163.39-1.25 163.76-1.1 164.14-0.95 164.49-0.95L164.49-0.95 164.49 0 156.09 0 156.09-0.95Q156.44-0.95 156.81-1.1 157.19-1.25 157.19-1.5L157.19-1.5 157.19-21.5Q157.19-21.75 156.81-21.9 156.44-22.05 156.09-22.05L156.09-22.05 156.09-23 163.39-23 163.39-20.85Q164.74-22.1 166.64-22.85 168.54-23.6 170.44-23.6L170.44-23.6 170.49-23.6 170.54-23.6Q170.79-23.6 170.91-23.9 171.04-24.2 171.04-24.5L171.04-24.5ZM184.74 0.75Q182.19 0.75 179.81-0.3 177.44-1.35 175.04-3.3L175.04-3.3Q174.94-3.4 174.79-3.4L174.79-3.4Q174.39-3.4 173.94-2.95L173.94-2.95 173.24-3.55 178.24-9.25 178.94-8.6Q178.74-8.35 178.61-8 178.49-7.65 178.69-7.45L178.69-7.45Q180.34-5.95 181.76-5.23 183.19-4.5 184.74-4.5L184.74-4.5Q188.59-4.5 188.59-7.05L188.59-7.05Q188.59-8.2 187.41-8.83 186.24-9.45 183.49-10.2L183.49-10.2Q179.94-11.15 178.34-12.68 176.74-14.2 176.74-16.85L176.74-16.85Q176.74-20 178.79-21.98 180.84-23.95 184.39-23.95L184.39-23.95Q186.19-23.95 187.64-23.4 189.09-22.85 191.14-21.45L191.14-21.45Q191.19-21.4 191.34-21.4L191.34-21.4Q191.59-21.4 191.84-21.55 192.09-21.7 192.19-21.85L192.19-21.85 192.94-21.2 188.44-16.1 187.74-16.7Q187.94-16.9 188.01-17.23 188.09-17.55 187.89-17.75L187.89-17.75Q186.99-18.45 186.16-18.8 185.34-19.15 184.34-19.15L184.34-19.15Q183.29-19.15 182.69-18.75 182.09-18.35 182.09-17.55L182.09-17.55Q182.09-16.9 182.44-16.5 182.79-16.1 183.71-15.7 184.64-15.3 186.54-14.7L186.54-14.7Q190.04-13.65 192.04-11.78 194.04-9.9 194.04-7.15L194.04-7.15Q194.04-3.1 191.49-1.18 188.94 0.75 184.74 0.75L184.74 0.75ZM202.63-27.2Q201.03-27.2 199.91-28.3 198.78-29.4 198.78-31.05L198.78-31.05Q198.78-32.6 199.91-33.73 201.03-34.85 202.63-34.85L202.63-34.85Q204.23-34.85 205.33-33.73 206.43-32.6 206.43-31.05L206.43-31.05Q206.43-29.4 205.33-28.3 204.23-27.2 202.63-27.2L202.63-27.2ZM199.38-21.5Q199.38-21.75 199.01-21.9 198.63-22.05 198.28-22.05L198.28-22.05 198.28-23 206.88-23 206.88-22.05Q206.53-22.05 206.16-21.9 205.78-21.75 205.78-21.5L205.78-21.5 205.78-1.5Q205.78-1.25 206.16-1.1 206.53-0.95 206.88-0.95L206.88-0.95 206.88 0 198.28 0 198.28-0.95Q198.63-0.95 199.01-1.1 199.38-1.25 199.38-1.5L199.38-1.5 199.38-21.5ZM224.13 0.6Q220.43 0.6 217.61-0.98 214.78-2.55 213.21-5.3 211.63-8.05 211.63-11.5L211.63-11.5Q211.63-14.9 213.21-17.7 214.78-20.5 217.63-22.13 220.48-23.75 224.13-23.75L224.13-23.75Q227.63-23.75 230.48-22.18 233.33-20.6 234.98-17.82 236.63-15.05 236.63-11.5L236.63-11.5Q236.63-8.4 235.16-5.63 233.68-2.85 230.83-1.13 227.98 0.6 224.13 0.6L224.13 0.6ZM224.13-5.15Q227.08-5.15 228.91-6.88 230.73-8.6 230.73-11.35L230.73-11.35Q230.73-14.2 228.91-16.05 227.08-17.9 224.13-17.9L224.13-17.9Q221.38-17.9 219.53-16.07 217.68-14.25 217.68-11.5L217.68-11.5Q217.68-8.6 219.53-6.88 221.38-5.15 224.13-5.15L224.13-5.15ZM245.18 0.55Q243.33 0.55 242.1-0.68 240.88-1.9 240.88-3.75L240.88-3.75Q240.88-5.5 242.13-6.73 243.38-7.95 245.18-7.95L245.18-7.95Q246.93-7.95 248.15-6.73 249.38-5.5 249.38-3.75L249.38-3.75Q249.38-1.9 248.15-0.68 246.93 0.55 245.18 0.55L245.18 0.55Z" opacity="1" transform="matrix(1,0,0,1,0,0)" fill="#000000" class="wordmark-text-0" data-fill-palette-color="primary" id="text-0"></path></svg></g></svg></g></svg></g></svg></g><g><svg viewBox="0 0 74.66685512347259 97.71399459524001" height="97.71399459524001" width="74.66685512347259"><g><svg xmlns="http://www.w3.org/2000/svg" viewBox="63.11 27.53 233.77999999999997 305.94000000000005" x="0" y="0" height="97.71399459524001" width="74.66685512347259" class="icon-icon-0" data-fill-palette-color="accent" id="icon-0"><polygon points="296.89 207.49 236.17 207.49 279.77 117.51 184.17 117.51 166.72 153.51 222.32 153.51 196.16 207.49 120.56 207.49 207.78 27.53 63.44 27.53 63.44 63.53 150.32 63.53 63.11 243.49 178.72 243.49 135.11 333.47 175.12 333.47 218.72 243.49 279.44 243.49" fill="#fb5607" data-fill-palette-color="accent"></polygon></svg></g></svg></g></svg></g><defs></defs></svg><rect width="395.52" height="79.66635351557237" fill="none" stroke="none" visibility="hidden"></rect></g></svg></g></svg>