<svg xmlns="http://www.w3.org/2000/svg" version="1.1" xmlns:xlink="http://www.w3.org/1999/xlink" xmlns:svgjs="http://svgjs.dev/svgjs" width="2000" height="1500" viewBox="0 0 2000 1500"><rect width="2000" height="1500" fill="#ffffff"></rect><g transform="matrix(0.75,0,0,0.75,249.090909090909,531.613941825762)"><svg viewBox="0 0 396 115" data-background-color="#ffffff" preserveAspectRatio="xMidYMid meet" height="580" width="2000" xmlns="http://www.w3.org/2000/svg" xmlns:xlink="http://www.w3.org/1999/xlink"><g id="tight-bounds" transform="matrix(1,0,0,1,0.2400000000000091,0.23424526445370475)"><svg viewBox="0 0 395.52 114.53135333168186" height="114.53135333168186" width="395.52"><g><svg viewBox="0 0 614.3722886823552 177.90475746428214" height="114.53135333168186" width="395.52"><g transform="matrix(1,0,0,1,218.85228868235524,45.5897209248321)"><svg viewBox="0 0 395.52 86.72531561461794" height="86.72531561461794" width="395.52"><g id="textblocktransform"><svg viewBox="0 0 395.52 86.72531561461794" height="86.72531561461794" width="395.52" id="textblock"><g><svg viewBox="0 0 395.52 86.72531561461794" height="86.72531561461794" width="395.52"><g transform="matrix(1,0,0,1,0,0)"><svg width="395.52" viewBox="2.35 -35.7 165.54 36.300000000000004" height="86.72531561461794" data-palette-color="#0c4af0"><g class="wordmark-text-0" data-fill-palette-color="primary" id="text-0"><path d="M13.85 0.6L13.85 0.6Q10.65 0.6 8.05-0.93 5.45-2.45 3.9-5.28 2.35-8.1 2.35-12.1L2.35-12.1Q2.35-16 3.9-18.88 5.45-21.75 7.93-23.3 10.4-24.85 13.2-24.85L13.2-24.85Q16.2-24.85 18.35-23.45 20.5-22.05 21.63-19.53 22.75-17 22.75-13.5L22.75-13.5Q22.75-12.95 22.7-12.35 22.65-11.75 22.55-11.3L22.55-11.3 5.2-11.3 5.15-13.95 19.5-13.95Q19.5-17.85 17.85-19.88 16.2-21.9 13.25-21.9L13.25-21.9Q11.45-21.9 9.75-20.88 8.05-19.85 6.95-17.68 5.85-15.5 5.85-12.1L5.85-12.1Q5.85-8.85 7-6.7 8.15-4.55 10.08-3.45 12-2.35 14.3-2.35L14.3-2.35Q16.1-2.35 17.6-2.9 19.1-3.45 20.45-4.3L20.45-4.3 21.8-1.9Q20.25-0.9 18.32-0.15 16.4 0.6 13.85 0.6ZM37 0.6L37 0.6Q32.5 0.6 29.77-2.73 27.05-6.05 27.05-12.1L27.05-12.1Q27.05-16 28.52-18.85 30-21.7 32.4-23.28 34.8-24.85 37.6-24.85L37.6-24.85Q39.75-24.85 41.32-24.1 42.9-23.35 44.5-22L44.5-22 44.35-26.2 44.35-35.7 47.95-35.7 47.95 0 44.95 0 44.65-2.95 44.5-2.95Q43.1-1.5 41.17-0.45 39.25 0.6 37 0.6ZM37.8-2.5L37.8-2.5Q39.55-2.5 41.15-3.38 42.75-4.25 44.35-5.95L44.35-5.95 44.35-19.1Q42.7-20.55 41.22-21.15 39.75-21.75 38.15-21.75L38.15-21.75Q36.1-21.75 34.42-20.53 32.75-19.3 31.77-17.13 30.8-14.95 30.8-12.1L30.8-12.1Q30.8-7.65 32.62-5.08 34.45-2.5 37.8-2.5ZM63.45 0.6L63.45 0.6Q59.7 0.6 57.9-1.8 56.1-4.2 56.1-8.85L56.1-8.85 56.1-24.25 59.7-24.25 59.7-9.3Q59.7-5.8 60.85-4.17 62-2.55 64.55-2.55L64.55-2.55Q66.45-2.55 68-3.58 69.55-4.6 71.35-6.85L71.35-6.85 71.35-24.25 75-24.25 75 0 71.95 0 71.65-3.85 71.5-3.85Q69.8-1.85 67.9-0.63 66 0.6 63.45 0.6ZM86.99 0L83.44 0 83.44-35.7 86.99-35.7 86.99-11 87.14-11 97.89-24.25 101.94-24.25 93.84-14.55 103.04 0 99.09 0 91.74-12 86.99-6.4 86.99 0ZM113.29 0.6L113.29 0.6Q111.29 0.6 109.69-0.2 108.09-1 107.14-2.53 106.19-4.05 106.19-6.2L106.19-6.2Q106.19-10.2 109.82-12.33 113.44-14.45 121.29-15.3L121.29-15.3Q121.29-16.9 120.87-18.43 120.44-19.95 119.32-20.88 118.19-21.8 116.09-21.8L116.09-21.8Q113.89-21.8 112.02-20.95 110.14-20.1 108.74-19.15L108.74-19.15 107.29-21.65Q108.34-22.35 109.79-23.1 111.24-23.85 112.99-24.35 114.74-24.85 116.69-24.85L116.69-24.85Q119.59-24.85 121.42-23.6 123.24-22.35 124.07-20.15 124.89-17.95 124.89-15L124.89-15 124.89 0 121.89 0 121.59-2.95 121.44-2.95Q119.69-1.5 117.64-0.45 115.59 0.6 113.29 0.6ZM114.24-2.35L114.24-2.35Q116.09-2.35 117.74-3.23 119.39-4.1 121.29-5.75L121.29-5.75 121.29-12.85Q116.99-12.35 114.49-11.48 111.99-10.6 110.89-9.35 109.79-8.1 109.79-6.45L109.79-6.45Q109.79-4.3 111.12-3.33 112.44-2.35 114.24-2.35ZM140.19 0.6L140.19 0.6Q136.39 0.6 134.94-1.6 133.49-3.8 133.49-7.3L133.49-7.3 133.49-21.25 129.84-21.25 129.84-24 133.64-24.25 134.09-31.1 137.14-31.1 137.14-24.25 143.79-24.25 143.79-21.25 137.14-21.25 137.14-7.2Q137.14-4.95 137.96-3.68 138.79-2.4 140.99-2.4L140.99-2.4Q141.64-2.4 142.41-2.6 143.19-2.8 143.79-3.05L143.79-3.05 144.54-0.3Q143.54 0.05 142.36 0.33 141.19 0.6 140.19 0.6ZM158.99 0.6L158.99 0.6Q155.79 0.6 153.19-0.93 150.59-2.45 149.04-5.28 147.49-8.1 147.49-12.1L147.49-12.1Q147.49-16 149.04-18.88 150.59-21.75 153.06-23.3 155.54-24.85 158.34-24.85L158.34-24.85Q161.34-24.85 163.49-23.45 165.64-22.05 166.76-19.53 167.89-17 167.89-13.5L167.89-13.5Q167.89-12.95 167.84-12.35 167.79-11.75 167.69-11.3L167.69-11.3 150.34-11.3 150.29-13.95 164.64-13.95Q164.64-17.85 162.99-19.88 161.34-21.9 158.39-21.9L158.39-21.9Q156.59-21.9 154.89-20.88 153.19-19.85 152.09-17.68 150.99-15.5 150.99-12.1L150.99-12.1Q150.99-8.85 152.14-6.7 153.29-4.55 155.21-3.45 157.14-2.35 159.44-2.35L159.44-2.35Q161.24-2.35 162.74-2.9 164.24-3.45 165.59-4.3L165.59-4.3 166.94-1.9Q165.39-0.9 163.46-0.15 161.54 0.6 158.99 0.6Z" fill="#0c4af0" data-fill-palette-color="primary"></path></g></svg></g></svg></g></svg></g></svg></g><g><svg viewBox="0 0 177.90475746428214 177.90475746428214" height="177.90475746428214" width="177.90475746428214"><g><svg></svg></g><g id="icon-0"><svg viewBox="0 0 177.90475746428214 177.90475746428214" height="177.90475746428214" width="177.90475746428214"><g><path d="M0 88.952c0-49.127 39.825-88.952 88.952-88.952 49.127 0 88.952 39.825 88.953 88.952 0 49.127-39.825 88.952-88.953 88.953-49.127 0-88.952-39.825-88.952-88.953zM88.952 170.084c44.808 0 81.131-36.324 81.132-81.132 0-44.808-36.324-81.131-81.132-81.131-44.808 0-81.131 36.324-81.131 81.131 0 44.808 36.324 81.131 81.131 81.132z" data-fill-palette-color="accent" fill="#0c4af0" stroke="transparent"></path></g><g transform="matrix(1,0,0,1,41.421038207451126,38.92947600252787)"><svg viewBox="0 0 95.06268104937989 100.0458054592264" height="100.0458054592264" width="95.06268104937989"><g><svg xmlns="http://www.w3.org/2000/svg" xmlns:xlink="http://www.w3.org/1999/xlink" version="1.1" x="0" y="0" viewBox="12.8 10.800000000000002 74.4 78.3" style="enable-background:new 0 0 100 100;" xml:space="preserve" height="100.0458054592264" width="95.06268104937989" class="icon-cg-0" data-fill-palette-color="accent" id="cg-0"><path d="M87.2 89.1L57 36.7c4.1-2.4 6.9-6.9 6.9-12 0-7.7-6.2-13.9-13.9-13.9s-13.9 6.2-13.9 13.9c0 5.1 2.8 9.6 6.9 12L12.8 89.1H87.2zM50 17.9c3.8 0 6.9 3.1 6.9 6.9s-3.1 6.9-6.9 6.9-6.9-3.1-6.9-6.9S46.2 17.9 50 17.9zM75.1 82.1H24.9L50 38.6 75.1 82.1z" fill="#0c4af0" data-fill-palette-color="accent"></path></svg></g></svg></g></svg></g></svg></g></svg></g><defs></defs></svg><rect width="395.52" height="114.53135333168186" fill="none" stroke="none" visibility="hidden"></rect></g></svg></g></svg>