<svg xmlns="http://www.w3.org/2000/svg" version="1.1" xmlns:xlink="http://www.w3.org/1999/xlink" xmlns:svgjs="http://svgjs.dev/svgjs" width="2000" height="661" viewBox="0 0 2000 661"><g transform="matrix(1,0,0,1,-1.2121212121212466,-0.7127900550770505)"><svg viewBox="0 0 396 131" data-background-color="#ffffff" preserveAspectRatio="xMidYMid meet" height="661" width="2000" xmlns="http://www.w3.org/2000/svg" xmlns:xlink="http://www.w3.org/1999/xlink"><g id="tight-bounds" transform="matrix(1,0,0,1,0.2400000000000091,0.14126398973539267)"><svg viewBox="0 0 395.52 130.71747202052921" height="130.71747202052921" width="395.52"><g><svg viewBox="0 0 571.048049658662 188.7286545652152" height="130.71747202052921" width="395.52"><g transform="matrix(1,0,0,1,175.528049658662,28.04342372048771)"><svg viewBox="0 0 395.52 132.6418071242398" height="132.6418071242398" width="395.52"><g id="textblocktransform"><svg viewBox="0 0 395.52 132.6418071242398" height="132.6418071242398" width="395.52" id="textblock"><g><svg viewBox="0 0 395.52 132.6418071242398" height="132.6418071242398" width="395.52"><g transform="matrix(1,0,0,1,0,0)"><svg width="395.52" viewBox="2.5 -37.5 115.09 38.6" height="132.6418071242398" data-palette-color="#000000"><path d="M26.85-7.15L27.8-7.15 27.8 1.05 26.85 1.05Q26.85 0.75 26.7 0.38 26.55 0 26.3 0L26.3 0 2.55 0 2.55-0.95Q2.9-0.95 3.28-1.1 3.65-1.25 3.65-1.5L3.65-1.5 3.65-36Q3.65-36.25 3.25-36.4 2.85-36.55 2.5-36.55L2.5-36.55 2.5-37.5 11.5-37.5 11.5-36.55Q11.15-36.55 10.75-36.4 10.35-36.25 10.35-36L10.35-36 10.35-6.1 26.3-6.1Q26.55-6.1 26.7-6.48 26.85-6.85 26.85-7.15L26.85-7.15ZM43.25-24.05Q47.1-24.05 49.9-22.38 52.7-20.7 54.15-17.85 55.6-15 55.6-11.55L55.6-11.55Q55.6-10.5 55.45-9.45L55.45-9.45 37.15-9.45Q37.35-7.05 39.25-5.7 41.15-4.35 43.8-4.35L43.8-4.35Q45.6-4.35 46.82-4.85 48.05-5.35 49-6.35L49-6.35Q49.1-6.55 49.1-6.6L49.1-6.6Q49.1-6.8 48.95-7.03 48.8-7.25 48.65-7.35L48.65-7.35 49.25-8.1 54.8-3.75 54.25-3Q53.5-3.45 53.2-3.1L53.2-3.1Q49.7 1.1 43.8 1.1L43.8 1.1Q40 1.1 37.1-0.58 34.2-2.25 32.62-5.08 31.05-7.9 31.05-11.35L31.05-11.35Q31.05-15 32.6-17.9 34.15-20.8 36.92-22.43 39.7-24.05 43.25-24.05L43.25-24.05ZM37.2-14.1L49.6-14.1Q49.4-16.15 47.52-17.57 45.65-19 43.3-19L43.3-19Q40.95-19 39.25-17.57 37.55-16.15 37.2-14.1L37.2-14.1ZM86.44-23L86.44-22.05Q86.09-22.05 85.72-21.9 85.34-21.75 85.34-21.5L85.34-21.5 85.34-1.5Q85.34-1.25 85.72-1.1 86.09-0.95 86.44-0.95L86.44-0.95 86.44 0 79.05 0 79.05-2.75Q75.89 0.65 71.09 0.65L71.09 0.65Q67.44 0.65 64.67-0.83 61.89-2.3 60.37-5.05 58.84-7.8 58.84-11.45L58.84-11.45Q58.84-15 60.52-17.78 62.2-20.55 65-22.08 67.8-23.6 71.09-23.6L71.09-23.6Q75.89-23.6 79.05-19.9L79.05-19.9 79.05-23 86.44-23ZM71.84-4.65Q73.89-4.65 75.52-5.58 77.14-6.5 78.05-8.03 78.94-9.55 78.94-11.3L78.94-11.3Q78.94-14.3 76.97-16.25 75-18.2 71.84-18.2L71.84-18.2Q68.8-18.2 66.82-16.3 64.84-14.4 64.84-11.45L64.84-11.45Q64.84-8.35 66.87-6.5 68.89-4.65 71.84-4.65L71.84-4.65ZM116.49-36L116.49-1.5Q116.49-1.25 116.87-1.1 117.24-0.95 117.59-0.95L117.59-0.95 117.59 0 110.44 0 110.44-1.75Q107.44 0.7 103.29 0.7L103.29 0.7Q99.59 0.7 96.69-0.8 93.79-2.3 92.14-5.05 90.49-7.8 90.49-11.4L90.49-11.4Q90.49-15.05 92.17-17.88 93.84-20.7 96.77-22.28 99.69-23.85 103.29-23.85L103.29-23.85Q107.44-23.85 110.44-21.5L110.44-21.5 110.44-36Q110.44-36.25 110.09-36.4 109.74-36.55 109.39-36.55L109.39-36.55 109.39-37.5 117.54-37.5 117.54-36.55Q117.19-36.55 116.84-36.4 116.49-36.25 116.49-36L116.49-36ZM103.59-4.65Q105.54-4.65 107.17-5.55 108.79-6.45 109.72-7.98 110.64-9.5 110.64-11.2L110.64-11.2Q110.64-14.25 108.67-16.23 106.69-18.2 103.59-18.2L103.59-18.2Q100.49-18.2 98.52-16.28 96.54-14.35 96.54-11.3L96.54-11.3Q96.54-8.25 98.57-6.45 100.59-4.65 103.59-4.65L103.59-4.65Z" opacity="1" transform="matrix(1,0,0,1,0,0)" fill="#000000" class="wordmark-text-0" data-fill-palette-color="primary" id="text-0"></path></svg></g></svg></g></svg></g></svg></g><g><svg viewBox="0 0 144.2145024 188.7286545652152" height="188.7286545652152" width="144.2145024"><g><svg xmlns="http://www.w3.org/2000/svg" viewBox="63.11 27.53 233.77999999999997 305.94000000000005" x="0" y="0" height="188.7286545652152" width="144.2145024" class="icon-icon-0" data-fill-palette-color="accent" id="icon-0"><polygon points="296.89 207.49 236.17 207.49 279.77 117.51 184.17 117.51 166.72 153.51 222.32 153.51 196.16 207.49 120.56 207.49 207.78 27.53 63.44 27.53 63.44 63.53 150.32 63.53 63.11 243.49 178.72 243.49 135.11 333.47 175.12 333.47 218.72 243.49 279.44 243.49" fill="#fb5607" data-fill-palette-color="accent"></polygon></svg></g></svg></g></svg></g><defs></defs></svg><rect width="395.52" height="130.71747202052921" fill="none" stroke="none" visibility="hidden"></rect></g></svg></g></svg>