<svg xmlns="http://www.w3.org/2000/svg" version="1.1" xmlns:xlink="http://www.w3.org/1999/xlink" xmlns:svgjs="http://svgjs.dev/svgjs" width="2000" height="378" viewBox="0 0 2000 378"><g transform="matrix(1,0,0,1,-1.2121212121212466,1.0347968954335727)"><svg viewBox="0 0 396 75" data-background-color="#ffffff" preserveAspectRatio="xMidYMid meet" height="378" width="2000" xmlns="http://www.w3.org/2000/svg" xmlns:xlink="http://www.w3.org/1999/xlink"><g id="tight-bounds" transform="matrix(1,0,0,1,0.2400000000000091,-0.2053168443320601)"><svg viewBox="0 0 395.52 75.4106336886641" height="75.4106336886641" width="395.52"><g><svg viewBox="0 0 555.3523027223534 105.8845799675149" height="75.4106336886641" width="395.52"><g><rect width="9.501274322743305" height="105.8845799675149" x="125.45858252855444" y="0" fill="#111111" opacity="1" stroke-width="0" stroke="transparent" fill-opacity="1" class="rect-qz-0" data-fill-palette-color="primary" rx="1%" id="qz-0" data-palette-color="#111111"></rect></g><g transform="matrix(1,0,0,1,159.83230272235352,0.2633944775311292)"><svg viewBox="0 0 395.52 105.35779101245264" height="105.35779101245264" width="395.52"><g id="textblocktransform"><svg viewBox="0 0 395.52 105.35779101245264" height="105.35779101245264" width="395.52" id="textblock"><g><svg viewBox="0 0 395.52 105.35779101245264" height="105.35779101245264" width="395.52"><g transform="matrix(1,0,0,1,0,0)"><svg width="395.52" viewBox="4.5 -37.6 184.68 49.2" height="105.35779101245264" data-palette-color="#111111"><path d="M25.3 0L4.5 0 4.5-35 9.25-35 9.25-4.25 25.3-4.25 25.3 0ZM39.95 0.6L39.95 0.6Q34.35 0.6 31.07-2.98 27.8-6.55 27.8-13L27.8-13Q27.8-16.9 29.27-19.98 30.75-23.05 33.4-24.83 36.05-26.6 39.55-26.6L39.55-26.6Q43.3-26.6 45.77-24.98 48.25-23.35 49.5-20.6 50.75-17.85 50.75-14.55L50.75-14.55Q50.75-12.8 50.6-11.15L50.6-11.15 32.4-11.15Q32.85-7.5 34.95-5.45 37.05-3.4 40.5-3.4L40.5-3.4Q42.75-3.4 44.55-3.88 46.35-4.35 48-5.1L48-5.1 49.05-1.25Q47.25-0.45 45 0.08 42.75 0.6 39.95 0.6ZM32.35-14.8L32.35-14.8 46.6-14.8Q46.6-18.6 44.7-20.65 42.8-22.7 39.45-22.7L39.45-22.7Q36.55-22.7 34.65-20.68 32.75-18.65 32.35-14.8ZM66.7 0.6L66.7 0.6Q63.45 0.6 60.8-1.05 58.15-2.7 56.57-5.73 55-8.75 55-12.85L55-12.85Q55-16.75 56.57-19.85 58.15-22.95 60.92-24.78 63.7-26.6 67.3-26.6L67.3-26.6Q69.55-26.6 71.37-25.83 73.2-25.05 74.55-23.9L74.55-23.9 74.55-26 78.65-26 78.65-6.3Q78.65-4.4 79.57-3.83 80.5-3.25 81.59-3.25L81.59-3.25 80.65 0.25Q75.84 0.25 74.84-3.65L74.84-3.65Q73.7-2.05 71.72-0.73 69.75 0.6 66.7 0.6ZM67.7-3.4L67.7-3.4Q69.59-3.4 71.3-4.33 73-5.25 74.15-6.65L74.15-6.65 74.15-20.6Q72.8-21.55 71.17-22.13 69.55-22.7 67.75-22.7L67.75-22.7Q65.34-22.7 63.52-21.48 61.7-20.25 60.65-18.07 59.6-15.9 59.6-13L59.6-13Q59.6-10.2 60.65-8.03 61.7-5.85 63.55-4.63 65.4-3.4 67.7-3.4ZM92.09 0L87.59 0 87.59-26 91.94-26 91.94-20.35Q92.59-22 93.69-23.43 94.79-24.85 96.44-25.73 98.09-26.6 100.29-26.6L100.29-26.6Q101.04-26.6 101.79-26.53 102.54-26.45 103.04-26.3L103.04-26.3 101.69-21.65Q100.74-22.05 99.44-22.05L99.44-22.05Q97.59-22.05 95.92-21 94.24-19.95 93.17-17.75 92.09-15.55 92.09-12.15L92.09-12.15 92.09 0ZM112.04 0L107.54 0 107.54-26 111.89-26 111.89-21.65Q113.29-23.75 115.47-25.18 117.64-26.6 120.64-26.6L120.64-26.6Q125.04-26.6 127.22-23.95 129.39-21.3 129.39-16.95L129.39-16.95 129.39 0 124.89 0 124.89-16.45Q124.89-19.25 123.57-20.95 122.24-22.65 119.89-22.65L119.89-22.65Q117.59-22.65 115.54-21.03 113.49-19.4 112.04-17.2L112.04-17.2 112.04 0ZM141.64 0L137.14 0 137.14-26 141.64-26 141.64 0ZM139.39-30.45L139.39-30.45Q138.09-30.45 137.16-31.4 136.24-32.35 136.24-33.6L136.24-33.6Q136.24-35.05 137.09-35.9 137.94-36.75 139.39-36.75L139.39-36.75Q140.69-36.75 141.61-35.83 142.54-34.9 142.54-33.6L142.54-33.6Q142.54-32.2 141.69-31.33 140.84-30.45 139.39-30.45ZM154.64 0L150.14 0 150.14-21.15 146.14-21.15 146.14-25.05 150.14-25.05 150.14-28.1Q150.14-32.5 152.59-35.05 155.04-37.6 158.99-37.6L158.99-37.6Q161.04-37.6 162.59-37.13 164.14-36.65 165.54-35.95L165.54-35.95 164.19-32.15Q163.14-32.7 161.94-33.15 160.74-33.6 159.29-33.6L159.29-33.6Q157.19-33.6 155.91-32.27 154.64-30.95 154.64-28.4L154.64-28.4 154.64-25.05 162.34-25.05 162.34-21.15 154.64-21.15 154.64 0ZM168.18 11.6L168.18 11.6Q166.68 11.6 165.56 11.3 164.43 11 163.78 10.6L163.78 10.6 164.78 6.85Q165.38 7.2 166.28 7.45 167.18 7.7 168.28 7.7L168.28 7.7Q170.38 7.7 172.03 6.35 173.68 5 175.18 1.05L175.18 1.05 176.33-1.95 173.93-1.95 163.78-24.8 167.78-26.6 177.48-4.95 185.03-26.4 189.18-24.8 179.63 1.3Q178.18 5.3 176.48 7.55 174.78 9.8 172.73 10.7 170.68 11.6 168.18 11.6Z" opacity="1" transform="matrix(1,0,0,1,0,0)" fill="#111111" class="wordmark-text-0" data-fill-palette-color="primary" id="text-0"></path></svg></g></svg></g></svg></g></svg></g><g transform="matrix(1,0,0,1,0,0.2633944775311292)"><svg viewBox="0 0 100.58613665749867 105.35779101245264" height="105.35779101245264" width="100.58613665749867"><g><svg version="1.0" xmlns="http://www.w3.org/2000/svg" xmlns:xlink="http://www.w3.org/1999/xlink" x="0" y="0" viewBox="0 0 95.471 100" enable-background="new 0 0 95.471 100" xml:space="preserve" width="100.58613665749867" height="105.35779101245264" class="icon-icon-0" data-fill-palette-color="accent" id="icon-0"><path d="M47.735 0c-0.083 2.825-1.738 13.412-19.799 30.934C10.554 47.797 2.439 49.824 0 50c2.439 0.178 10.554 2.204 27.936 19.066C45.997 86.589 47.652 97.177 47.735 100c0.083-2.823 1.739-13.411 19.798-30.934C84.917 52.204 93.031 50.178 95.471 50c-2.439-0.176-10.554-2.203-27.938-19.066C49.475 13.412 47.819 2.825 47.735 0z" fill="#2814f7" data-fill-palette-color="accent"></path></svg></g></svg></g></svg></g><defs></defs></svg><rect width="395.52" height="75.4106336886641" fill="none" stroke="none" visibility="hidden"></rect></g></svg></g></svg>