<svg xmlns="http://www.w3.org/2000/svg" version="1.1" xmlns:xlink="http://www.w3.org/1999/xlink" xmlns:svgjs="http://svgjs.dev/svgjs" width="2000" height="417" viewBox="0 0 2000 417"><g transform="matrix(1,0,0,1,-2.230464136709543,-0.10147908833150154)"><svg viewBox="0 0 278 58" data-background-color="#ffffff" preserveAspectRatio="xMidYMid meet" height="417" width="2000" xmlns="http://www.w3.org/2000/svg" xmlns:xlink="http://www.w3.org/1999/xlink"><g id="tight-bounds" transform="matrix(1,0,0,1,0.31003451500262713,0.5598373949218001)"><svg viewBox="0 0 277.37993096999475 57.425247" height="57.425247" width="277.37993096999475"><g><svg viewBox="0 0 277.37993096999475 57.425247" height="57.425247" width="277.37993096999475"><g><svg viewBox="0 0 277.37993096999475 57.425247" height="57.425247" width="277.37993096999475"><g id="textblocktransform"><svg viewBox="0 0 277.37993096999475 57.425247" height="57.425247" width="277.37993096999475" id="textblock"><g><svg viewBox="0 0 277.37993096999475 57.425247" height="57.425247" width="277.37993096999475"><g><svg><g></g><g></g></svg></g><g><svg><g></g><g><svg></svg></g></svg></g><g id="text-0"><svg viewBox="0 0 277.37993096999475 57.425247" height="57.425247" width="277.37993096999475"><g><svg xmlns="http://www.w3.org/2000/svg" xmlns:xlink="http://www.w3.org/1999/xlink" version="1.1" x="0" y="0" viewBox="11.017823632605122 11.461749422187646 37.96369815853941 37.06825057781236" style="enable-background:new 0 0 60 60;" xml:space="preserve" height="57.425247" width="58.81245296999477" class="icon-dxe-0" data-fill-palette-color="accent" id="dxe-0"><path d="M48.85 34.1L35.82 11.92A0.945 0.945 0 0 0 34.2 11.92L30 19.08 25.79 11.93A0.945 0.945 0 0 0 24.17 11.93L11.15 34.1C10.93 34.47 10.99 34.93 11.29 35.23L24.32 48.26C24.5 48.44 24.74 48.53 24.98 48.53S25.46 48.44 25.64 48.26L30 43.91 34.35 48.26C34.53 48.44 34.77 48.53 35.01 48.53S35.49 48.44 35.67 48.26L48.7 35.23C49.01 34.93 49.07 34.46 48.85 34.1M24.99 46.28L13.13 34.42 24.99 14.24 28.92 20.92 21.17 34.1C20.95 34.47 21.01 34.93 21.31 35.23L28.67 42.59zM30 22.77L36.85 34.42 30 41.27 23.15 34.42zM35.01 46.28L31.32 42.59 38.68 35.23C38.98 34.93 39.04 34.46 38.82 34.1L31.08 20.93 35.01 14.25 46.87 34.43z" fill="#3f37c9" data-fill-palette-color="accent"></path></svg></g><g transform="matrix(1,0,0,1,72.50715296999478,3.552713678800501e-15)"><svg width="204.87277799999998" viewBox="0.6 -35.2 127.89000000000001 35.85" height="57.42524699999999" data-palette-color="#ffffff"><g class="wordmark-text-0" data-fill-palette-color="primary"><path d="M24.3-34.5L30.75-34.5 20.9-1.75Q20.65-1 20.05-0.5 19.45 0 18.6 0L18.6 0 12.7 0Q11.85 0 11.25-0.5 10.65-1 10.45-1.75L10.45-1.75 0.6-34.5 7.05-34.5 14.1-8.55Q14.35-7.6 14.6-6.65 14.85-5.7 15-4.75L15-4.75 16.3-4.75Q16.55-5.7 16.78-6.68 17-7.65 17.25-8.6L17.25-8.6 24.3-34.5ZM34.95-24.55L40.95-24.55 40.95 0 34.95 0 34.95-24.55ZM36.6-35.2L39.3-35.2Q41.1-35.2 41.1-33.4L41.1-33.4 41.1-30.6Q41.1-28.8 39.3-28.8L39.3-28.8 36.6-28.8Q34.8-28.8 34.8-30.6L34.8-30.6 34.8-33.4Q34.8-35.2 36.6-35.2L36.6-35.2ZM64.09-25.15L64.09-25.15Q70.95-25.15 70.95-18.4L70.95-18.4 70.95 0 64.9 0 64.9-16.55Q64.9-18.55 64.2-19.3 63.5-20.05 61.84-20.05L61.84-20.05Q60-20.05 58.05-19.23 56.09-18.4 53.34-16.85L53.34-16.85 53.09-20.5Q55.84-22.75 58.62-23.95 61.4-25.15 64.09-25.15ZM47.95-24.55L52.9-24.55 53.5-19.75 54-19.05 54 0 47.95 0 47.95-24.55ZM88.54-25.15L88.54-25.15Q94.49-25.15 97.09-23.08 99.69-21 99.74-16.95L99.74-16.95Q99.79-13.6 98.17-11.88 96.54-10.15 92.79-10.15L92.79-10.15 78.79-10.15 78.79-13.9 91.14-13.9Q92.84-13.9 93.32-14.8 93.79-15.7 93.79-17L93.79-17Q93.74-19.05 92.62-19.85 91.49-20.65 88.79-20.65L88.79-20.65Q86.44-20.65 85.14-20 83.84-19.35 83.32-17.65 82.79-15.95 82.79-12.75L82.79-12.75Q82.79-9.35 83.44-7.5 84.09-5.65 85.59-4.98 87.09-4.3 89.59-4.3L89.59-4.3Q91.44-4.3 93.87-4.45 96.29-4.6 98.54-4.85L98.54-4.85 99.14-1Q97.79-0.45 96.04-0.1 94.29 0.25 92.42 0.43 90.54 0.6 88.89 0.6L88.89 0.6Q84.39 0.6 81.67-0.73 78.94-2.05 77.72-4.9 76.49-7.75 76.49-12.25L76.49-12.25Q76.49-17.1 77.72-19.93 78.94-22.75 81.62-23.95 84.29-25.15 88.54-25.15ZM116.29-25.15L116.29-25.15Q120.79-25.15 123.47-23.9 126.14-22.65 127.32-19.8 128.49-16.95 128.49-12.25L128.49-12.25Q128.49-7.55 127.32-4.73 126.14-1.9 123.47-0.63 120.79 0.65 116.29 0.65L116.29 0.65Q111.89 0.65 109.22-0.63 106.54-1.9 105.34-4.73 104.14-7.55 104.14-12.25L104.14-12.25Q104.14-16.95 105.34-19.8 106.54-22.65 109.22-23.9 111.89-25.15 116.29-25.15ZM116.29-20.55L116.29-20.55Q114.09-20.55 112.82-19.83 111.54-19.1 110.99-17.3 110.44-15.5 110.44-12.25L110.44-12.25Q110.44-9 110.99-7.2 111.54-5.4 112.82-4.7 114.09-4 116.29-4L116.29-4Q118.54-4 119.84-4.7 121.14-5.4 121.67-7.2 122.19-9 122.19-12.25L122.19-12.25Q122.19-15.5 121.67-17.3 121.14-19.1 119.84-19.83 118.54-20.55 116.29-20.55Z" fill="#ffffff" data-fill-palette-color="primary"></path></g></svg></g></svg></g></svg></g></svg></g></svg></g><g></g></svg></g><defs></defs></svg><rect width="277.37993096999475" height="57.425247" fill="none" stroke="none" visibility="hidden"></rect></g></svg></g></svg>