<svg xmlns="http://www.w3.org/2000/svg" version="1.1" xmlns:xlink="http://www.w3.org/1999/xlink" xmlns:svgjs="http://svgjs.dev/svgjs" width="2000" height="358" viewBox="0 0 2000 358"><g transform="matrix(1,0,0,1,-1.2121212121212466,-0.7806007907059893)"><svg viewBox="0 0 396 71" data-background-color="#ffffff" preserveAspectRatio="xMidYMid meet" height="358" width="2000" xmlns="http://www.w3.org/2000/svg" xmlns:xlink="http://www.w3.org/1999/xlink"><g id="tight-bounds" transform="matrix(1,0,0,1,0.2400000000000091,0.15481188865956597)"><svg viewBox="0 0 395.52 70.69037622268088" height="70.69037622268088" width="395.52"><g><svg viewBox="0 0 506.6879629728864 90.55916952380952" height="70.69037622268088" width="395.52"><g transform="matrix(1,0,0,1,111.16796297288641,1.5945053968253973)"><svg viewBox="0 0 395.52 87.37015873015872" height="87.37015873015872" width="395.52"><g id="textblocktransform"><svg viewBox="0 0 395.52 87.37015873015872" height="87.37015873015872" width="395.52" id="textblock"><g><svg viewBox="0 0 395.52 87.37015873015872" height="87.37015873015872" width="395.52"><g transform="matrix(1,0,0,1,0,0)"><svg width="395.52" viewBox="1.46 -33.75 157.14 34.79" height="87.37015873015872" data-palette-color="#000814"><path d="M20.42 0L1.46 0 15.17-27.71 2.92-27.71 2.92-31.25 21.04-31.25 7.33-3.54 20.42-3.54 20.42 0ZM36.18 0.42L36.18 0.42Q32.91 0.42 30.33-1.04 27.74-2.5 26.26-5.02 24.79-7.53 24.79-10.63L24.79-10.63Q24.79-13.58 26.21-15.99 27.64-18.4 30.05-19.83 32.46-21.25 35.38-21.25L35.38-21.25Q38.26-21.25 40.66-19.88 43.05-18.51 44.48-16.18 45.9-13.85 45.9-10.9L45.9-10.9 45.9-9.38 32.29-9.38Q31.39-9.38 30.45-9.44 29.51-9.51 28.61-9.65L28.61-9.65Q28.99-6.88 31.13-5 33.26-3.13 36.21-3.13L36.21-3.13Q38.19-3.13 39.89-4.03 41.59-4.93 42.64-6.42L42.64-6.42 43.68-2.15Q42.19-0.94 40.26-0.26 38.33 0.42 36.18 0.42ZM28.5-12.19L28.5-12.19Q30.38-12.5 32.29-12.5L32.29-12.5 39.2-12.5Q39.96-12.5 40.71-12.45 41.46-12.4 42.22-12.33L42.22-12.33Q41.73-14.76 39.79-16.34 37.84-17.92 35.38-17.92L35.38-17.92Q32.84-17.92 30.94-16.23 29.03-14.55 28.5-12.19ZM54.65 0L50.9 0 50.9-20.83 54.37-20.83 54.37-17.47Q55.52-19.31 57.34-20.28 59.16-21.25 61.28-21.25L61.28-21.25Q63.5-21.25 65.39-20.16 67.29-19.06 68.47-17 69.65-14.93 69.65-11.98L69.65-11.98 69.65 0 65.9 0 65.9-11.46Q65.9-13.92 64.42-15.82 62.95-17.71 60.27-17.71L60.27-17.71Q58.09-17.71 56.37-16.13 54.65-14.55 54.65-11.56L54.65-11.56 54.65 0ZM82.08 0L78.33 0 78.33-17.71 73.6-17.71 73.6-20.83 78.43-20.83 78.43-26.81Q78.43-30.21 80.44-31.98 82.46-33.75 85.24-33.75L85.24-33.75Q86.28-33.75 87.37-33.51 88.46-33.26 89.44-32.67L89.44-32.67 88.53-29.03Q87.08-30.63 85.13-30.63L85.13-30.63Q83.95-30.63 82.96-29.83 81.97-29.03 81.97-26.74L81.97-26.74 81.97-20.83 87.15-20.83 87.15-17.71 82.08-17.71 82.08 0ZM95.27 0L91.52 0 91.52-33.33 95.27-33.33 95.27 0ZM111.45 0.42L111.45 0.42Q108.43 0.42 105.93-1.04 103.43-2.5 101.95-4.97 100.47-7.43 100.47-10.42L100.47-10.42Q100.47-13.44 101.95-15.89 103.43-18.33 105.93-19.79 108.43-21.25 111.45-21.25L111.45-21.25Q114.5-21.25 116.98-19.79 119.47-18.33 120.94-15.89 122.42-13.44 122.42-10.42L122.42-10.42Q122.42-7.43 120.94-4.97 119.47-2.5 116.98-1.04 114.5 0.42 111.45 0.42ZM111.45-3.13L111.45-3.13Q113.46-3.13 115.09-4.11 116.72-5.1 117.7-6.75 118.67-8.4 118.67-10.42L118.67-10.42Q118.67-12.43 117.7-14.08 116.72-15.73 115.09-16.72 113.46-17.71 111.45-17.71L111.45-17.71Q109.43-17.71 107.8-16.72 106.17-15.73 105.2-14.08 104.22-12.43 104.22-10.42L104.22-10.42Q104.22-8.4 105.2-6.75 106.17-5.1 107.8-4.11 109.43-3.13 111.45-3.13ZM139.43-8.26L135.23 1.04 124.71-20.83 128.98-20.83 133.18-11.81Q133.77-10.52 134.31-9.31 134.85-8.09 135.37-6.25L135.37-6.25Q135.92-8.06 136.5-9.31 137.07-10.56 137.59-11.81L137.59-11.81 141.79-21.81 145.96-11.81Q146.48-10.52 147.03-9.31 147.59-8.09 148.11-6.25L148.11-6.25Q148.63-8.09 149.19-9.32 149.74-10.56 150.33-11.81L150.33-11.81 154.6-20.83 158.6-20.83 148.08 1.04 143.84-8.26Q143.28-9.51 142.75-10.75 142.21-11.98 141.65-13.72L141.65-13.72Q141.13-11.98 140.58-10.75 140.02-9.51 139.43-8.26L139.43-8.26Z" opacity="1" transform="matrix(1,0,0,1,0,0)" fill="#000814" class="wordmark-text-0" data-fill-palette-color="primary" id="text-0"></path></svg></g></svg></g></svg></g></svg></g><g><svg viewBox="0 0 90.54196538050546 90.55916952380952" height="90.55916952380952" width="90.54196538050546"><g><svg xmlns="http://www.w3.org/2000/svg" xmlns:xlink="http://www.w3.org/1999/xlink" version="1.1" x="0" y="0" viewBox="10.602 10.547 78.942 78.95700000000001" enable-background="new 0 0 100 100" xml:space="preserve" height="90.55916952380952" width="90.54196538050546" class="icon-icon-0" data-fill-palette-color="accent" id="icon-0"><path d="M30.587 47.523C30.566 47.523 29.529 48.52 29.529 48.52 28.694 49.183 28.235 50.123 28.235 51.115A3.367 3.367 0 0 0 31.608 54.478C32.547 54.478 33.421 54.086 34.088 53.38L34.15 53.305 35.071 52.47C35.444 52.154 38.806 49.24 42.946 49.24 45.47 49.24 47.789 50.276 49.872 52.369 53.245 55.746 56.83 57.448 60.516 57.448L61.426 57.42C67.011 57.025 70.412 52.846 71.051 52.024A3.4 3.4 0 0 0 71.689 50.06C71.689 49.182 71.324 48.329 70.693 47.684 70.054 47.075 69.202 46.702 68.312 46.702 67.215 46.702 66.205 47.233 65.556 48.143L65.541 48.172 65.494 48.244 65.44 48.301C64.802 48.965 63.088 50.61 60.848 50.767H60.561C58.69 50.767 56.683 49.713 54.604 47.638 51.198 44.233 47.331 42.519 43.079 42.519 37.91 42.52 33.225 45.1 30.587 47.523" fill="#4361ee" data-fill-palette-color="accent"></path><path d="M50.076 89.504C28.306 89.504 10.602 71.788 10.602 50.047 10.602 28.263 28.306 10.547 50.076 10.547 71.828 10.547 89.544 28.262 89.544 50.047 89.544 71.788 71.828 89.504 50.076 89.504M50.076 17.43C32.103 17.43 17.467 32.041 17.467 50.047 17.467 67.996 32.104 82.621 50.076 82.621 68.047 82.621 82.665 67.996 82.665 50.047 82.665 32.042 68.047 17.43 50.076 17.43" fill="#4361ee" data-fill-palette-color="accent"></path></svg></g></svg></g></svg></g><defs></defs></svg><rect width="395.52" height="70.69037622268088" fill="none" stroke="none" visibility="hidden"></rect></g></svg></g></svg>